# xmcd
#
# Track frame offsets:
#	150
#	13852
#	31268
#	49265
#	67169
#	83918
#	102865
#	118769
#	131283
#	146793
#	161802
#	179727
#
# Disc length: 2619 seconds
# Revision: 0
# Processed by: cddbd v1.5.2PL0 Copyright (c) Steve Scherf et al.
# Submitted via: dBpowerAMP V12.0
#
DISCID=af0a390c
DTITLE=Steve Roberson - What Used To Be
DYEAR=2014
DGENRE=Country
TTITLE0=Back to Mayberry
TTITLE1=The Old Me
TTITLE2=Home Cookin'
TTITLE3=What Used To Be
TTITLE4=Four Year Old Cowboy
TTITLE5=In the Time I've Got Left
TTITLE6=Madi Maybe
TTITLE7=If Heartaches Were Horses
TTITLE8=You Suit Me Well
TTITLE9=She Completes Me
TTITLE10=You Meant to Say What?
TTITLE11=If You Can
EXTD=
EXTT0=
EXTT1=
EXTT2=
EXTT3=
EXTT4=
EXTT5=
EXTT6=
EXTT7=
EXTT8=
EXTT9=
EXTT10=
EXTT11=
PLAYORDER=
